<svg width="24" height="24" viewBox="0 0 24 24" fill="none" xmlns="http://www.w3.org/2000/svg">
<path d="M12.0101 22.74C11.3801 22.74 10.7601 22.53 10.2701 22.11L8.69012 20.76C8.53012 20.62 8.13012 20.48 7.92012 20.48H6.17012C4.69012 20.48 3.49012 19.28 3.49012 17.8V16.09C3.49012 15.88 3.35012 15.48 3.22012 15.33L1.86012 13.73C1.04012 12.76 1.04012 11.24 1.86012 10.26L3.22012 8.66C3.35012 8.51 3.49012 8.11 3.49012 7.9V6.2C3.49012 4.72 4.69012 3.52 6.17012 3.52H7.90012C8.11012 3.52 8.50012 3.37 8.67012 3.23L10.2501 1.88C11.2301 1.05 12.7601 1.05 13.7401 1.88L15.3201 3.23C15.4801 3.37 15.8901 3.51 16.1001 3.51H17.8001C19.2801 3.51 20.4801 4.71 20.4801 6.19V7.89C20.4801 8.1 20.6301 8.49 20.7701 8.66L22.1201 10.24C22.9601 11.23 22.9501 12.76 22.1201 13.73L20.7701 15.31C20.6301 15.48 20.4901 15.87 20.4901 16.08V17.78C20.4901 19.26 19.2901 20.46 17.8101 20.46H16.1101C15.9001 20.46 15.5101 20.61 15.3301 20.75L13.7501 22.1C13.2601 22.53 12.6301 22.74 12.0101 22.74ZM6.17012 5.02C5.52012 5.02 4.99012 5.55 4.99012 6.2V7.9C4.99012 8.47 4.73012 9.19 4.36012 9.63L3.00012 11.23C2.66012 11.64 2.66012 12.36 3.00012 12.76L4.35012 14.35C4.71012 14.76 4.98012 15.51 4.98012 16.08V17.79C4.98012 18.44 5.51012 18.97 6.16012 18.97H7.90012C8.46012 18.97 9.20012 19.24 9.64012 19.61L11.2301 20.97C11.6401 21.32 12.3601 21.32 12.7701 20.97L14.3501 19.62C14.8001 19.24 15.5301 18.98 16.0901 18.98H17.7901C18.4401 18.98 18.9701 18.45 18.9701 17.8V16.1C18.9701 15.54 19.2401 14.81 19.6101 14.36L20.9701 12.77C21.3201 12.36 21.3201 11.64 20.9701 11.23L19.6201 9.65C19.2401 9.2 18.9801 8.47 18.9801 7.91V6.2C18.9801 5.55 18.4501 5.02 17.8001 5.02H16.1001C15.5301 5.02 14.7901 4.75 14.3501 4.38L12.7601 3.02C12.3501 2.67 11.6401 2.67 11.2201 3.02L9.65012 4.38C9.20012 4.75 8.47012 5.02 7.90012 5.02H6.17012Z" fill="#292D32"/>
<path d="M12 16.87C11.45 16.87 11 16.42 11 15.87C11 15.32 11.44 14.87 12 14.87C12.55 14.87 13 15.32 13 15.87C13 16.42 12.56 16.87 12 16.87Z" fill="#292D32"/>
<path d="M12 13.72C11.59 13.72 11.25 13.38 11.25 12.97V8.13C11.25 7.72 11.59 7.38 12 7.38C12.41 7.38 12.75 7.72 12.75 8.13V12.96C12.75 13.38 12.42 13.72 12 13.72Z" fill="#292D32"/>
</svg>
