<svg width="24" height="24" viewBox="0 0 24 24" fill="none" xmlns="http://www.w3.org/2000/svg">
<g clip-path="url(#clip0_2015_27345)">
<path d="M20.715 10.6609C20.4411 10.5776 20.1892 10.8426 20.2842 11.1123L21.6495 14.9812C21.8214 15.4687 21.4596 15.9799 20.943 15.9799C20.6344 15.9799 20.3451 15.7879 20.2365 15.4803C17.0568 6.47129 17.9573 9.01714 16.811 5.78675H19.3768C19.5411 5.78675 19.6751 5.92067 19.6751 6.08548V6.54714C19.6751 6.71196 19.5411 6.84587 19.3768 6.84587C19.0448 6.84587 18.7634 7.06172 18.6651 7.36091C18.5147 7.81504 18.8272 8.29613 19.3061 8.34089C20.1785 8.42779 21.1734 7.65378 21.1734 6.54714V6.08548C21.1734 5.09299 20.3688 4.28845 19.3763 4.28845H15.75C15.2335 4.28845 14.8711 4.80068 15.0439 5.2881L15.7448 7.26305H9.88458L9.36065 5.78675H10.092C10.4951 5.78675 10.8421 5.47726 10.8613 5.07459C10.8819 4.6443 10.5392 4.28845 10.1131 4.28845H8.30013C7.78368 4.28845 7.42081 4.80068 7.59405 5.2881L8.54126 7.95883L3.46342 15.7004C3.17565 16.1359 2.54665 16.147 2.2409 15.7402C2.05455 15.4939 2.03301 15.1474 2.21281 14.8749L4.79551 10.9602C4.93738 10.7452 4.78043 10.4567 4.52291 10.4629C2.14112 10.52 0 12.4514 0 15.0879C0 17.6374 2.07421 19.7116 4.6232 19.7116C6.85801 19.7116 8.72715 18.1178 9.15463 16.0071C12.1681 16.0071 11.9658 16.0117 12.059 15.9953C12.2491 15.9607 12.4158 15.8549 12.5267 15.7065C12.5488 15.677 12.2903 16.067 16.568 9.58308L17.0952 11.0683C15.6404 11.8975 14.6773 13.4922 14.7583 15.3C14.866 17.6875 16.8049 19.6152 19.1928 19.7079C21.8251 19.8104 24 17.6983 24 15.0879C24 12.9795 22.5916 11.2321 20.715 10.6609ZM6.01522 14.5087L6.98256 13.0423C7.33841 13.452 7.58937 13.9548 7.69332 14.5087H6.01522ZM9.21035 14.5087C9.0755 13.4351 8.57076 12.4748 7.82863 11.7598L9.16914 9.72776L10.866 14.5087H9.21035ZM12.1297 13.5901L10.416 8.76135H15.3155L12.1297 13.5901Z" fill="black"/>
</g>
<defs>
<clipPath id="clip0_2015_27345">
<rect width="24" height="24" fill="white"/>
</clipPath>
</defs>
</svg>
