<svg width="24" height="24" viewBox="0 0 24 24" fill="none" xmlns="http://www.w3.org/2000/svg">
<path d="M21 9.75H21.75C22.164 9.75 22.5 9.414 22.5 9C22.5 8.586 22.164 8.25 21.75 8.25H19.9245L18.5483 5.9565C18.006 5.05275 17.0295 4.5 15.9757 4.5H8.02425C6.9705 4.5 5.994 5.05275 5.45175 5.9565L4.0755 8.25H2.25C1.836 8.25 1.5 8.586 1.5 9C1.5 9.414 1.836 9.75 2.25 9.75H3L2.1 10.9507C1.71075 11.4697 1.5 12.1012 1.5 12.7507V15.7507C1.5 16.5795 2.17125 17.2507 3 17.2507V18.0007C3 18.8295 3.67125 19.5007 4.5 19.5007H6C6.82875 19.5007 7.5 18.8295 7.5 18.0007V17.2507H16.5V18.0007C16.5 18.8295 17.1713 19.5007 18 19.5007H19.5C20.3288 19.5007 21 18.8295 21 18.0007V17.2507C21.8288 17.2507 22.5 16.5795 22.5 15.7507V12.7507C22.5 12.102 22.2893 11.4697 21.9 10.9507L21 9.75ZM4.875 15C4.254 15 3.75 14.496 3.75 13.875C3.75 13.254 4.254 12.75 4.875 12.75C5.496 12.75 6 13.254 6 13.875C6 14.496 5.496 15 4.875 15ZM17.9678 9.12C17.3513 9.531 16.6275 9.75 15.8873 9.75H8.112C7.37175 9.75 6.648 9.531 6.03225 9.12075L5.511 8.7735L6.738 6.729C7.00875 6.2775 7.497 6.00075 8.02425 6.00075H15.9765C16.5037 6.00075 16.992 6.2775 17.2628 6.729L18.4897 8.7735L17.9685 9.12075L17.9678 9.12ZM19.125 15C18.504 15 18 14.496 18 13.875C18 13.254 18.504 12.75 19.125 12.75C19.746 12.75 20.25 13.254 20.25 13.875C20.25 14.496 19.746 15 19.125 15Z" fill="black"/>
</svg>
